HIERARCHY
ROOT Hips
{
  OFFSET 0 0 0
  CHANNELS 6 Xposition Yposition Zposition Zrotation Xrotation Yrotation
  JOINT Spine
  {
    OFFSET 0 10.1816 0.131521
    CHANNELS 3 Zrotation Xrotation Yrotation
    JOINT Spine1
    {
      OFFSET 0 10.0835 -1.0008
      CHANNELS 3 Zrotation Xrotation Yrotation
      JOINT Spine2
      {
        OFFSET 0 9.10001 -1.37342
        CHANNELS 3 Zrotation Xrotation Yrotation
        JOINT Neck
        {
          OFFSET 0 16.6717 -2.51617
          CHANNELS 3 Zrotation Xrotation Yrotation
          JOINT Head
          {
            OFFSET 0 9.61788 1.68501
            CHANNELS 3 Zrotation Xrotation Yrotation
            End Site
            {
              OFFSET 0 0 0
            }
          }
        }
        JOINT LeftShoulder
        {
          OFFSET 4.57045 10.946 -2.62799
          CHANNELS 3 Zrotation Xrotation Yrotation
          JOINT LeftArm
          {
            OFFSET 10.5924 -0.524583 -2.23212
            CHANNELS 3 Zrotation Xrotation Yrotation
            JOINT LeftForeArm
            {
              OFFSET 27.8415 -8.94286e-05 3.74589e-05
              CHANNELS 3 Zrotation Xrotation Yrotation
              JOINT LeftHand
              {
                OFFSET 28.3288 -1.74407e-05 3.78045e-05
                CHANNELS 3 Zrotation Xrotation Yrotation
                End Site
                {
                  OFFSET 0 0 0
                }
              }
            }
          }
        }
        JOINT RightShoulder
        {
          OFFSET -4.56997 10.9462 -2.62802
          CHANNELS 3 Zrotation Xrotation Yrotation
          JOINT RightArm
          {
            OFFSET -10.5928 -0.524798 -2.2321
            CHANNELS 3 Zrotation Xrotation Yrotation
            JOINT RightForeArm
            {
              OFFSET -27.8415 -3.30792e-05 1.16763e-05
              CHANNELS 3 Zrotation Xrotation Yrotation
              JOINT RightHand
              {
                OFFSET -28.3288 0 5.5816e-05
                CHANNELS 3 Zrotation Xrotation Yrotation
                End Site
                {
                  OFFSET 0 0 0
                }
              }
            }
          }
        }
      }
    }
  }
  JOINT LeftUpLeg
  {
    OFFSET 8.20778 -6.75171 -1.59956
    CHANNELS 3 Zrotation Xrotation Yrotation
    JOINT LeftLeg
    {
      OFFSET 0 -44.3705 0.284643
      CHANNELS 3 Zrotation Xrotation Yrotation
      JOINT LeftFoot
      {
        OFFSET 0 -44.4279 -2.98219
        CHANNELS 3 Zrotation Xrotation Yrotation
        JOINT LeftToeBase
        {
          OFFSET 0 -8.72867 10.7106
          CHANNELS 3 Zrotation Xrotation Yrotation
          End Site
          {
            OFFSET 0 0 0
          }
        }
      }
    }
  }
  JOINT RightUpLeg
  {
    OFFSET -8.2078 -6.75166 -1.59956
    CHANNELS 3 Zrotation Xrotation Yrotation
    JOINT RightLeg
    {
      OFFSET 0 -44.3705 0.286156
      CHANNELS 3 Zrotation Xrotation Yrotation
      JOINT RightFoot
      {
        OFFSET 0 -44.4277 -2.98379
        CHANNELS 3 Zrotation Xrotation Yrotation
        JOINT RightToeBase
        {
          OFFSET 0 -8.72867 10.7106
          CHANNELS 3 Zrotation Xrotation Yrotation
          End Site
          {
            OFFSET 0 0 0
          }
        }
      }
    }
  }
}
MOTION
Frames:	16
Frame Time:	0.0333333
5.64171 267.816 380.441 -175.897 -58.3731 167.693 -2.62182 19.7973 0.296735 -2.25691 22.7581 -0.0381841 -2.52907 25.6298 -0.0168612 10.3496 3.82289 3.83631 -17.151 31.7174 15.8143 8.30297 -3.52362 -12.1735 -7.13945 -19.6429 -56.7795 -0.000199069 6.86348e-06 -41.9587 175.984 -64.6901 -160.533 -25.5641 -14.0934 88.0981 -13.4664 -63.2352 -11.1453 3.45102e-06 3.98099e-06 45.7418 -21.6614 -57.025 -63.831 24.4312 -53.3101 24.3624 -11.883 88.2271 2.59304 -18.1433 6.76152 -2.93759 6.31736e-07 0.755354 7.42422e-06 -59.5402 -51.4198 -34.148 179.043 61.1725 -172.577 -6.64169 23.7312 -1.39943 -1.95961e-05 -4.15806 8.92103e-06 
6.84534 272.352 391.606 -172.69 -63.1603 165.957 -2.39762 17.5621 0.460871 -2.17539 20.2974 0.22489 -2.14212 22.7187 0.277694 10.5313 5.21669 4.0115 -19.3899 30.7677 17.0417 7.69891 -2.1527 -11.4438 -10.0103 -13.7938 -57.0941 -0.000205336 -1.09901e-06 -36.6494 -172.313 -66.3256 -153.352 -24.5491 -13.5586 89.05 3.74688 -62.1345 4.30606 9.50725e-06 2.8648e-06 40.4952 -12.5968 -55.3087 -50.0079 23.8066 -52.7376 23.8717 -177.578 84.0008 169.067 -15.6291 11.3564 -5.24194 1.48706e-06 0.36848 -4.82023e-06 -59.8325 -48.6244 -25.8472 177.722 59.9463 -172.323 -12.1244 25.3333 -0.134049 -1.35145e-06 -1.26741 -6.52001e-06 
7.81321 276.994 402.35 -167.258 -70.9035 165.932 -1.68911 14.7104 0.428931 -1.33023 17.8484 0.260248 -1.60887 19.8013 0.271466 10.6366 6.99615 4.21505 -21.84 29.5959 18.2022 7.02622 -0.838956 -10.7036 -13.2728 -8.98244 -51.7195 -0.000210447 -4.6422e-08 -39.2893 -166.149 -68.3935 -153.592 -23.4757 -13.3929 89.6052 18.863 -57.9233 17.7376 -2.82842e-06 3.75318e-07 38.6689 -8.40761 -52.5084 -40.5693 24.9378 -51.8036 25.1251 -176.964 81.4192 169.012 -12.8968 13.4337 -6.95696 -8.03063e-06 0.553203 -8.58065e-06 -59.7651 -49.4281 -23.3549 177.303 58.4203 -171.549 -13.7643 22.9463 0.345625 5.23408e-06 2.02216 -1.00009e-05 
8.47275 281.343 412.946 -153.15 -79.7908 175.098 -0.295889 11.1847 1.08104 -0.111718 14.5415 1.49228 -1.59836 16.0123 1.35666 10.636 9.09025 4.40401 -24.3353 28.2028 19.2794 6.28507 0.413655 -9.95068 -17.6582 -3.9647 -53.8642 -0.000216318 -2.51702e-06 -32.2781 -147.074 -70.616 -138.242 -22.3616 -13.6101 89.6507 26.5974 -50.8361 21.2177 -3.13507e-06 7.36048e-07 36.0498 -5.83579 -54.1219 -31.105 24.2412 -50.9752 23.9183 -174.153 85.1671 166.374 -11.3249 12.2577 -5.31598 -7.14968e-07 0.914798 -3.98955e-06 -57.2463 -50.1501 -22.5081 177.572 59.1052 -172.123 -13.2575 20.0508 0.111259 -2.05985e-06 2.00951 -4.81874e-07 
8.93422 285.165 424.156 -61.4658 -85.772 -97.7072 1.03096 8.21065 1.42223 0.709322 11.9152 2.10568 -1.42921 12.9123 1.95855 10.5065 11.3304 4.56713 -26.7195 26.597 20.2721 5.4758 1.60119 -9.18319 -19.2464 -3.19168 -44.7181 -0.000197163 3.64145e-06 -44.8476 -154.745 -75.8347 -150.452 -21.2346 -14.1836 89.023 27.6622 -42.5498 20.5433 -1.91226e-05 5.649e-06 42.748 -14.0983 -57.0236 -34.568 24.6882 -51.8611 22.9537 -9.23739 87.4088 1.46762 -10.3335 10.7414 -1.30189 7.76546e-06 0.879185 3.09705e-06 -51.7184 -50.2626 -23.4273 179.521 67.3254 -178.181 -13.6653 19.4683 -1.65234 2.3128e-05 -0.195655 -1.46424e-05 
9.31578 288.482 436.873 -15.3843 -78.6518 -55.9302 2.3524 6.15277 1.69373 1.22001 10.0041 2.46977 -1.30181 10.5545 2.36187 10.2264 13.5474 4.69316 -28.8474 24.7923 21.1975 4.59886 2.71977 -8.39947 -19.0674 -5.35747 -34.6006 -0.000179009 1.3057e-07 -59.9183 173.393 -78.8653 175.969 -20.1308 -15.012 87.5097 24.4176 -34.3185 21.1883 -2.20839e-05 3.32071e-06 48.2518 -27.1693 -61.6076 -44.8865 23.7145 -50.5145 19.2761 -6.84898 78.7565 1.72003 -4.97395 8.53628 -0.425425 -6.40263e-06 0.857151 -5.94238e-06 -45.3162 -47.3032 -26.0803 -166.017 82.4031 161.408 -18.7474 21.131 -4.53407 9.37369e-07 -5.49827 1.25269e-07 
9.26451 290.567 450.919 -4.29447 -70.7453 -50.6158 3.67012 4.394 1.9324 1.55667 8.33911 2.74203 -1.10299 8.48039 2.69111 9.77829 15.5714 4.76575 -30.5841 22.803 22.0936 3.6549 3.76549 -7.59809 -17.118 -10.7825 -20.9692 -0.000191555 7.12518e-06 -79.6201 134.346 -73.5737 137.564 -19.0779 -15.87 84.8719 18.2834 -28.0533 26.5425 2.19291e-05 -1.53501e-06 52.9732 -47.3149 -64.2103 -65.413 23.533 -49.4247 16.8684 -3.60213 71.8991 1.74126 0.18493 5.74849 -1.59205 -4.4477e-06 0.615065 -9.30764e-07 -44.3972 -48.0842 -32.1949 -55.8824 85.5135 48.2602 -25.0241 19.771 -7.40062 -5.03201e-06 -11.7556 -1.32151e-05 
9.35502 291.27 465.464 0.192785 -62.3623 -52.3082 4.9271 3.42564 2.1325 1.6832 7.29958 3.06461 -0.909039 7.24327 3.03766 9.15386 17.2328 4.75754 -31.803 20.6394 23.0197 2.49394 4.38467 -6.69118 -15.3273 -17.8559 -12.2734 -0.000396743 -4.09647e-06 -90.4157 -130.352 -79.2458 -136.725 -17.5192 -16.4414 78.8753 10.0897 -27.3796 32.9631 1.24487e-05 -2.54124e-06 63.1076 -64.4052 -71.6486 -77.1885 25.4966 -49.6958 16.5594 -0.390829 68.1088 1.16617 5.91338 3.14324 -2.62067 9.01026e-06 0.721753 -1.22586e-05 -52.7002 -53.1832 -42.2403 -87.9617 84.9328 80.8246 -26.2822 14.6076 -8.25425 -1.90972e-06 -16.2962 1.9774e-05 
9.09035 291.582 479.892 1.31434 -53.7282 -57.4814 6.84658 2.97736 2.37061 1.64026 6.53072 3.60218 -0.67685 6.44103 3.47694 8.35883 18.3624 4.62358 -32.3831 18.3029 24.057 1.34057 4.43958 -5.50585 -16.0581 -21.2665 -4.49005 -0.000259196 5.5616e-06 -94.1804 -52.9592 -67.2273 -70.3753 -16.0708 -16.2164 67.6341 9.83255 -25.371 38.7002 -1.24924e-06 -3.90657e-06 71.6702 -30.2202 -79.1295 -12.2212 29.4459 -48.537 18.9269 0.426637 64.6455 2.56141 11.777 -1.43445 -3.20161 1.14147e-05 0.779096 -1.8852e-05 -65.9093 -62.8256 -52.412 -153.959 78.1981 148.397 -22.4969 10.4952 -5.8942 -6.23268e-07 -17.2226 -4.99205e-06 
9.16102 291.085 493.829 3.65859 -47.7069 -59.9959 7.37539 2.82163 2.37284 1.63785 6.24848 3.55782 -0.10741 6.14107 3.60751 7.41793 18.793 4.29635 -32.2048 15.7822 25.3094 0.505503 4.19375 -4.03066 -17.4907 -26.9443 4.62996 -0.000229186 -3.03273e-06 -101.464 -18.9107 -48.488 -42.0193 -15.474 -14.6535 54.4536 6.03492 -30.4205 26.2681 -1.76181e-05 -5.45413e-06 72.7647 31.1293 -72.0718 57.2818 30.5165 -47.7954 26.4254 1.37137 64.6661 0.419014 10.0758 -1.23912 -1.55842 1.82557e-07 0.835597 -1.71933e-06 -91.4316 -68.2087 -70.4331 -165.603 69.6232 163.853 -17.2658 8.65463 -2.46068 -1.16913e-05 -17.5008 2.9873e-06 
8.44997 289.574 506.275 11.0405 -41.9553 -57.5593 5.74082 0.253223 2.32599 1.79003 3.49816 2.1898 1.11748 3.46275 2.59774 6.37731 18.3611 3.68422 -31.1466 13.0517 26.9048 -1.17105 3.77321 -3.86658 -18.0622 -34.2267 20.4854 -0.000231206 -1.44011e-05 -108.336 -2.47552 -34.499 -22.2125 -16.3833 -12.0015 41.0626 6.10182 -30.8273 34.5519 -8.37583e-06 -1.55809e-05 64.3889 14.8866 -63.4263 35.2291 28.4942 -45.1513 45.2041 4.32543 58.7121 -12.0515 -7.78653 13.1067 5.73506 -4.58865e-06 1.17423 7.88213e-06 -125.574 -65.8599 -95.128 -168.96 63.7939 171.932 -11.4017 7.60002 1.03816 -4.35492e-06 -17.7712 -6.0707e-06 
7.59999 287.965 516.911 11.7186 -33.2274 -65.075 6.3728 2.61676 3.36124 1.74581 4.7724 3.66932 1.97409 4.6772 3.9019 5.30212 16.9079 2.67594 -29.0803 10.0734 28.9996 -4.30261 3.05929 -6.14538 -8.68731 -41.9308 39.5875 -0.000227397 6.56516e-06 -115.484 0.208893 -18.5439 -10.7128 -21.6756 -9.00818 27.7006 5.28764 -38.776 31.0828 -1.34266e-05 9.68726e-06 74.6141 0.658801 -41.079 14.3073 42.08 -44.0333 62.1603 4.4873 66.2507 -14.297 -19.0293 13.3579 9.11867 -6.3409e-07 1.37657 -2.82327e-05 -143.387 -64.0442 -111.734 -170.155 61.8147 177.508 -7.64117 7.13907 4.76616 5.94177e-06 -18.0106 1.09407e-05 
6.08981 285.475 524.949 12.422 -26.0264 -68.2873 4.77757 8.06676 1.59629 1.88405 5.2962 4.44457 3.86708 4.21688 5.11694 4.04133 13.1608 0.781114 -25.0464 6.49467 32.8911 -7.63775 1.12674 -9.54595 -9.06438 -42.3135 43.2358 -0.000228882 -5.10331e-12 -113.145 -2.38029 -1.01177 -9.77021 -27.529 -6.14285 18.5263 18.5787 -37.0781 39.203 -1.73729e-05 6.15048e-06 75.2193 -8.86761 -17.0529 15.6921 61.3267 -47.2453 73.796 10.326 83.1979 -20.4314 -16.9066 4.27704 7.86625 6.04325e-06 -0.140211 1.01529e-05 -149.515 -61.4032 -115.799 -171.385 59.5658 -179.802 -3.59281 4.58919 8.86928 4.14206e-07 -18.2167 1.7561e-05 
4.53037 282.601 532.039 13.5695 -19.1715 -69.7024 1.74847 14.4644 -0.973648 1.69966 4.61069 4.92002 6.64748 2.09352 6.63841 2.66535 6.69335 -2.3476 -18.6586 2.14876 39.3513 -9.98889 -2.5775 -13.2399 -16.4696 -40.2951 35.367 -0.000213623 1.74252e-12 -105.136 -5.82421 15.8757 -10.0349 -29.0283 -5.12718 16.0312 30.6282 -30.6009 49.0422 -2.89534e-06 -8.32476e-06 65.4185 -14.8504 4.47089 23.8941 79.4866 -48.5365 84.7293 176.332 83.5078 175.035 -15.1555 0.590855 5.27733 4.34799e-06 -4.09862 -1.81511e-05 -150.981 -58.8781 -114.466 -172.298 57.8884 -178.356 1.18464 1.25524 13.4596 5.28787e-06 -18.405 8.80279e-06 
2.85246 279.618 538.194 14.7745 -12.916 -69.9492 -2.40872 21.1537 -3.37045 1.15658 3.44525 5.22308 9.13612 -0.389247 8.09499 1.43691 -1.38966 -6.43164 -10.6123 -2.60993 47.7159 -10.7212 -7.61288 -16.9699 -26.4785 -35.9781 21.1153 -0.000198383 -7.63919e-07 -92.8697 -9.10731 29.4448 -9.17995 -21.6733 -5.02541 20.6257 30.7223 -32.9114 41.5091 8.54925e-06 -8.87826e-06 71.153 -6.92699 12.81 20.7327 95.9602 -47.2093 95.5536 -179.5 72.897 172.376 -12.5282 0.647127 1.93159 -3.64698e-07 -9.61081 -9.00302e-06 -148.747 -56.6487 -109.191 -172.978 56.6926 -177.463 6.1081 -2.62765 18.1969 -4.93854e-06 -18.5791 -2.77045e-05 
1.27972 276.805 543.443 15.8392 -7.49323 -69.501 -7.37994 27.4274 -4.88765 0.404134 2.52923 5.48959 10.6056 -1.99756 8.88604 0.467953 -10.0064 -10.9607 -1.64024 -7.32118 57.1662 -9.67437 -13.1961 -20.0868 -36.1809 -29.2199 4.41031 -0.000203992 2.26742e-06 -77.1304 -8.73889 38.7032 -6.48299 -10.5064 -1.84233 29.4835 26.1222 -32.1958 33.7166 -2.79303e-06 -4.06594e-06 72.6199 -0.45624 21.692 6.87124 109.064 -43.0224 105.435 -179.258 64.3514 173.139 -7.81461 3.20395 -1.6827 3.94485e-06 -15.7889 -2.12739e-05 -144.197 -54.852 -101.604 -173.48 56.1138 -177.711 11.0725 -6.38626 23.5288 -8.15601e-06 -18.7425 7.81525e-07 
